<svg width="30" height="30" viewBox="0 0 30 30" fill="none" xmlns="http://www.w3.org/2000/svg">
<path fill-rule="evenodd" clip-rule="evenodd" d="M19.3601 5.53778C19.4536 5.61794 19.5304 5.71575 19.5861 5.82561C19.6418 5.93547 19.6754 6.05523 19.6848 6.17805C19.6942 6.30087 19.6793 6.42434 19.6409 6.5414C19.6026 6.65846 19.5416 6.76682 19.4613 6.86028L12.4851 15.0003L19.4613 23.1403C19.6137 23.3301 19.6862 23.5716 19.6637 23.814C19.6412 24.0563 19.5253 24.2803 19.3406 24.4388C19.1558 24.5972 18.9167 24.6776 18.6738 24.6629C18.4309 24.6483 18.2032 24.5398 18.0388 24.3603L10.5388 15.6103C10.3933 15.4404 10.3132 15.224 10.3132 15.0003C10.3132 14.7765 10.3933 14.5602 10.5388 14.3903L18.0388 5.64028C18.2007 5.45176 18.4308 5.33521 18.6785 5.31622C18.9262 5.29724 19.1714 5.37738 19.3601 5.53903" fill="black"/>
</svg>
