<svg width="30" height="30" viewBox="0 0 30 30" fill="none" xmlns="http://www.w3.org/2000/svg">
<path fill-rule="evenodd" clip-rule="evenodd" d="M10.6399 24.4622C10.5464 24.3821 10.4696 24.2843 10.4139 24.1744C10.3582 24.0645 10.3246 23.9448 10.3152 23.822C10.3058 23.6991 10.3207 23.5757 10.3591 23.4586C10.3974 23.3415 10.4584 23.2332 10.5387 23.1397L17.5149 14.9997L10.5387 6.85972C10.3863 6.66994 10.3138 6.42835 10.3363 6.18604C10.3588 5.94372 10.4747 5.71967 10.6594 5.56124C10.8442 5.40281 11.0833 5.32242 11.3262 5.33706C11.5691 5.35171 11.7968 5.46024 11.9612 5.63972L19.4612 14.3897C19.6067 14.5596 19.6868 14.776 19.6868 14.9997C19.6868 15.2235 19.6067 15.4398 19.4612 15.6097L11.9612 24.3597C11.7993 24.5482 11.5692 24.6648 11.3215 24.6838C11.0738 24.7028 10.8286 24.6226 10.6399 24.461" fill="black"/>
</svg>
